<svg xmlns="http://www.w3.org/2000/svg" xmlns:xlink="http://www.w3.org/1999/xlink" viewBox="0 0 430 430" width="430" height="430" preserveAspectRatio="xMidYMid meet" style="width: 100%; height: 100%; transform: translate3d(0px, 0px, 0px); content-visibility: visible;"><defs><clipPath id="__lottie_element_26"><rect width="430" height="430" x="0" y="0"/></clipPath><clipPath id="__lottie_element_28"><path d="M0,0 L430,0 L430,430 L0,430z"/></clipPath><g id="__lottie_element_35"><g transform="matrix(0.9702957272529602,0.24192190170288086,-0.24192190170288086,0.9702957272529602,294.2233581542969,208.67556762695312)" opacity="1" style="display: block;"><g opacity="1" transform="matrix(1,0,0,1,0,0)"><path fill="rgb(255,0,0)" fill-opacity="1" d=" M23.80299949645996,-7.420000076293945 C23.80299949645996,-7.420000076293945 23.792999267578125,-7.420000076293945 23.792999267578125,-7.420000076293945 M23.788999557495117,9.177000045776367 C23.788999557495117,9.177000045776367 23.80699920654297,-45.47700119018555 23.80699920654297,-45.47700119018555 C23.809999465942383,-54.54499816894531 31.163000106811523,-61.893001556396484 40.23099899291992,-61.88999938964844 C40.23099899291992,-61.88999938964844 40.23099899291992,-61.88999938964844 40.23099899291992,-61.88999938964844 C50.400001525878906,-61.887001037597656 58.64099884033203,-53.638999938964844 58.63800048828125,-43.470001220703125 C58.63800048828125,-43.470001220703125 58.62099838256836,9.187999725341797 58.62099838256836,9.187999725341797 M58.62099838256836,9.187999725341797 C58.62099838256836,9.187999725341797 58.630001068115234,-17.933000564575195 58.630001068115234,-17.933000564575195 C58.632999420166016,-27.552000045776367 66.43199920654297,-32.39400100708008 76.0510025024414,-32.39099884033203 C76.0510025024414,-32.39099884033203 76.0510025024414,-32.39099884033203 76.0510025024414,-32.39099884033203 C85.66999816894531,-32.38800048828125 93.46399688720703,-24.58799934387207 93.46099853515625,-14.968999862670898 C93.46099853515625,-14.968999862670898 93.4530029296875,9.199999809265137 93.4530029296875,9.199999809265137 C93.4530029296875,9.199999809265137 93.43299865722656,58.77000045776367 93.43299865722656,58.77000045776367 C93.4229965209961,94.04000091552734 82.75299835205078,117.52999877929688 82.75299835205078,117.52999877929688 C82.75299835205078,117.52999877929688 82.74299621582031,160.1199951171875 82.74299621582031,160.1199951171875 C82.74299621582031,160.1199951171875 3.7929999828338623,160.08999633789062 3.7929999828338623,160.08999633789062 C3.7929999828338623,160.08999633789062 -40.87699890136719,160.0800018310547 -40.87699890136719,160.0800018310547 C-40.87699890136719,160.0800018310547 -40.856998443603516,117.48999786376953 -40.856998443603516,117.48999786376953 C-62.547000885009766,103.30000305175781 -78.28700256347656,81.63999938964844 -85.08699798583984,56.630001068115234 C-85.08699798583984,56.630001068115234 -99.26699829101562,4.449999809265137 -99.26699829101562,4.449999809265137 C-99.56700134277344,3.369999885559082 -99.70700073242188,2.2799999713897705 -99.70700073242188,1.2000000476837158 C-99.70700073242188,-4.019999980926514 -96.36699676513672,-8.850000381469727 -91.177001953125,-10.550000190734863 C-74.51699829101562,-16.010000228881836 -56.62699890136719,-6.650000095367432 -51.606998443603516,10.149999618530273 C-51.606998443603516,10.149999618530273 -45.87699890136719,29.34000015258789 -45.87699890136719,29.34000015258789 C-45.87699890136719,29.34000015258789 -45.875,9.152999877929688 -45.875,9.152999877929688 C-45.875,9.152999877929688 -45.96500015258789,-51.5 -45.96500015258789,-51.5 C-45.96500015258789,-51.5 -45.84299850463867,-87 -45.84299850463867,-87 C-45.84299850463867,-87 -45.834999084472656,-111.39600372314453 -45.834999084472656,-111.39600372314453 C-45.832000732421875,-120.46399688720703 -37.479000091552734,-127.81199645996094 -28.410999298095703,-127.80899810791016 C-28.410999298095703,-127.80899810791016 -28.410999298095703,-127.80899810791016 -28.410999298095703,-127.80899810791016 C-18.242000579833984,-127.80599975585938 -11.00100040435791,-119.55899810791016 -11.003999710083008,-109.38999938964844 C-11.003999710083008,-109.38999938964844 -11.01099967956543,-86 -11.01099967956543,-86 C-11.01099967956543,-86 -11.133000373840332,-51 -11.133000373840332,-51 C-11.133000373840332,-51 -11.043000221252441,9.164999961853027 -11.043000221252441,9.164999961853027 M-11.043000221252441,9.164999961853027 C-11.043000221252441,9.164999961853027 -11.08899974822998,-72.18800354003906 -11.08899974822998,-72.18800354003906 C-11.08899974822998,-72.18800354003906 -11.12399959564209,-132.9340057373047 -11.12399959564209,-132.9340057373047 C-11.121000289916992,-142.55299377441406 -3.321000099182129,-150.3470001220703 6.297999858856201,-150.343994140625 C6.297999858856201,-150.343994140625 6.297999858856201,-150.343994140625 6.297999858856201,-150.343994140625 C15.916999816894531,-150.34100341796875 23.711000442504883,-142.54100036621094 23.70800018310547,-132.9219970703125 C23.70800018310547,-132.9219970703125 23.746999740600586,-64.83200073242188 23.746999740600586,-64.83200073242188 C23.746999740600586,-64.83200073242188 23.788999557495117,9.177000045776367 23.788999557495117,9.177000045776367"/></g></g></g><g id="__lottie_element_41"><g transform="matrix(0.9702957272529602,0.24192190170288086,-0.24192190170288086,0.9702957272529602,294.2233581542969,208.67556762695312)" opacity="1" style="display: block;"><g opacity="1" transform="matrix(1,0,0,1,0,0)"><path fill="rgb(255,0,0)" fill-opacity="1" d=" M23.80299949645996,-7.420000076293945 C23.80299949645996,-7.420000076293945 23.792999267578125,-7.420000076293945 23.792999267578125,-7.420000076293945 M23.788999557495117,9.177000045776367 C23.788999557495117,9.177000045776367 23.80699920654297,-45.47700119018555 23.80699920654297,-45.47700119018555 C23.809999465942383,-54.54499816894531 31.163000106811523,-61.893001556396484 40.23099899291992,-61.88999938964844 C40.23099899291992,-61.88999938964844 40.23099899291992,-61.88999938964844 40.23099899291992,-61.88999938964844 C50.400001525878906,-61.887001037597656 58.64099884033203,-53.638999938964844 58.63800048828125,-43.470001220703125 C58.63800048828125,-43.470001220703125 58.62099838256836,9.187999725341797 58.62099838256836,9.187999725341797 M58.62099838256836,9.187999725341797 C58.62099838256836,9.187999725341797 58.630001068115234,-17.933000564575195 58.630001068115234,-17.933000564575195 C58.632999420166016,-27.552000045776367 66.43199920654297,-32.39400100708008 76.0510025024414,-32.39099884033203 C76.0510025024414,-32.39099884033203 76.0510025024414,-32.39099884033203 76.0510025024414,-32.39099884033203 C85.66999816894531,-32.38800048828125 93.46399688720703,-24.58799934387207 93.46099853515625,-14.968999862670898 C93.46099853515625,-14.968999862670898 93.4530029296875,9.199999809265137 93.4530029296875,9.199999809265137 C93.4530029296875,9.199999809265137 93.43299865722656,58.77000045776367 93.43299865722656,58.77000045776367 C93.4229965209961,94.04000091552734 82.75299835205078,117.52999877929688 82.75299835205078,117.52999877929688 C82.75299835205078,117.52999877929688 82.74299621582031,160.1199951171875 82.74299621582031,160.1199951171875 C82.74299621582031,160.1199951171875 3.7929999828338623,160.08999633789062 3.7929999828338623,160.08999633789062 C3.7929999828338623,160.08999633789062 -40.87699890136719,160.0800018310547 -40.87699890136719,160.0800018310547 C-40.87699890136719,160.0800018310547 -40.856998443603516,117.48999786376953 -40.856998443603516,117.48999786376953 C-62.547000885009766,103.30000305175781 -78.28700256347656,81.63999938964844 -85.08699798583984,56.630001068115234 C-85.08699798583984,56.630001068115234 -99.26699829101562,4.449999809265137 -99.26699829101562,4.449999809265137 C-99.56700134277344,3.369999885559082 -99.70700073242188,2.2799999713897705 -99.70700073242188,1.2000000476837158 C-99.70700073242188,-4.019999980926514 -96.36699676513672,-8.850000381469727 -91.177001953125,-10.550000190734863 C-74.51699829101562,-16.010000228881836 -56.62699890136719,-6.650000095367432 -51.606998443603516,10.149999618530273 C-51.606998443603516,10.149999618530273 -45.87699890136719,29.34000015258789 -45.87699890136719,29.34000015258789 C-45.87699890136719,29.34000015258789 -45.875,9.152999877929688 -45.875,9.152999877929688 C-45.875,9.152999877929688 -45.96500015258789,-51.5 -45.96500015258789,-51.5 C-45.96500015258789,-51.5 -45.84299850463867,-87 -45.84299850463867,-87 C-45.84299850463867,-87 -45.834999084472656,-111.39600372314453 -45.834999084472656,-111.39600372314453 C-45.832000732421875,-120.46399688720703 -37.479000091552734,-127.81199645996094 -28.410999298095703,-127.80899810791016 C-28.410999298095703,-127.80899810791016 -28.410999298095703,-127.80899810791016 -28.410999298095703,-127.80899810791016 C-18.242000579833984,-127.80599975585938 -11.00100040435791,-119.55899810791016 -11.003999710083008,-109.38999938964844 C-11.003999710083008,-109.38999938964844 -11.01099967956543,-86 -11.01099967956543,-86 C-11.01099967956543,-86 -11.133000373840332,-51 -11.133000373840332,-51 C-11.133000373840332,-51 -11.043000221252441,9.164999961853027 -11.043000221252441,9.164999961853027 M-11.043000221252441,9.164999961853027 C-11.043000221252441,9.164999961853027 -11.08899974822998,-72.18800354003906 -11.08899974822998,-72.18800354003906 C-11.08899974822998,-72.18800354003906 -11.12399959564209,-132.9340057373047 -11.12399959564209,-132.9340057373047 C-11.121000289916992,-142.55299377441406 -3.321000099182129,-150.3470001220703 6.297999858856201,-150.343994140625 C6.297999858856201,-150.343994140625 6.297999858856201,-150.343994140625 6.297999858856201,-150.343994140625 C15.916999816894531,-150.34100341796875 23.711000442504883,-142.54100036621094 23.70800018310547,-132.9219970703125 C23.70800018310547,-132.9219970703125 23.746999740600586,-64.83200073242188 23.746999740600586,-64.83200073242188 C23.746999740600586,-64.83200073242188 23.788999557495117,9.177000045776367 23.788999557495117,9.177000045776367"/></g></g></g><g id="__lottie_element_47"><g transform="matrix(0.9702957272529602,0.24192190170288086,-0.24192190170288086,0.9702957272529602,294.2233581542969,208.67556762695312)" opacity="1" style="display: block;"><g opacity="1" transform="matrix(1,0,0,1,0,0)"><path fill="rgb(255,0,0)" fill-opacity="1" d=" M23.80299949645996,-7.420000076293945 C23.80299949645996,-7.420000076293945 23.792999267578125,-7.420000076293945 23.792999267578125,-7.420000076293945 M23.788999557495117,9.177000045776367 C23.788999557495117,9.177000045776367 23.80699920654297,-45.47700119018555 23.80699920654297,-45.47700119018555 C23.809999465942383,-54.54499816894531 31.163000106811523,-61.893001556396484 40.23099899291992,-61.88999938964844 C40.23099899291992,-61.88999938964844 40.23099899291992,-61.88999938964844 40.23099899291992,-61.88999938964844 C50.400001525878906,-61.887001037597656 58.64099884033203,-53.638999938964844 58.63800048828125,-43.470001220703125 C58.63800048828125,-43.470001220703125 58.62099838256836,9.187999725341797 58.62099838256836,9.187999725341797 M58.62099838256836,9.187999725341797 C58.62099838256836,9.187999725341797 58.630001068115234,-17.933000564575195 58.630001068115234,-17.933000564575195 C58.632999420166016,-27.552000045776367 66.43199920654297,-32.39400100708008 76.0510025024414,-32.39099884033203 C76.0510025024414,-32.39099884033203 76.0510025024414,-32.39099884033203 76.0510025024414,-32.39099884033203 C85.66999816894531,-32.38800048828125 93.46399688720703,-24.58799934387207 93.46099853515625,-14.968999862670898 C93.46099853515625,-14.968999862670898 93.4530029296875,9.199999809265137 93.4530029296875,9.199999809265137 C93.4530029296875,9.199999809265137 93.43299865722656,58.77000045776367 93.43299865722656,58.77000045776367 C93.4229965209961,94.04000091552734 82.75299835205078,117.52999877929688 82.75299835205078,117.52999877929688 C82.75299835205078,117.52999877929688 82.74299621582031,160.1199951171875 82.74299621582031,160.1199951171875 C82.74299621582031,160.1199951171875 3.7929999828338623,160.08999633789062 3.7929999828338623,160.08999633789062 C3.7929999828338623,160.08999633789062 -40.87699890136719,160.0800018310547 -40.87699890136719,160.0800018310547 C-40.87699890136719,160.0800018310547 -40.856998443603516,117.48999786376953 -40.856998443603516,117.48999786376953 C-62.547000885009766,103.30000305175781 -78.28700256347656,81.63999938964844 -85.08699798583984,56.630001068115234 C-85.08699798583984,56.630001068115234 -99.26699829101562,4.449999809265137 -99.26699829101562,4.449999809265137 C-99.56700134277344,3.369999885559082 -99.70700073242188,2.2799999713897705 -99.70700073242188,1.2000000476837158 C-99.70700073242188,-4.019999980926514 -96.36699676513672,-8.850000381469727 -91.177001953125,-10.550000190734863 C-74.51699829101562,-16.010000228881836 -56.62699890136719,-6.650000095367432 -51.606998443603516,10.149999618530273 C-51.606998443603516,10.149999618530273 -45.87699890136719,29.34000015258789 -45.87699890136719,29.34000015258789 C-45.87699890136719,29.34000015258789 -45.875,9.152999877929688 -45.875,9.152999877929688 C-45.875,9.152999877929688 -45.96500015258789,-51.5 -45.96500015258789,-51.5 C-45.96500015258789,-51.5 -45.84299850463867,-87 -45.84299850463867,-87 C-45.84299850463867,-87 -45.834999084472656,-111.39600372314453 -45.834999084472656,-111.39600372314453 C-45.832000732421875,-120.46399688720703 -37.479000091552734,-127.81199645996094 -28.410999298095703,-127.80899810791016 C-28.410999298095703,-127.80899810791016 -28.410999298095703,-127.80899810791016 -28.410999298095703,-127.80899810791016 C-18.242000579833984,-127.80599975585938 -11.00100040435791,-119.55899810791016 -11.003999710083008,-109.38999938964844 C-11.003999710083008,-109.38999938964844 -11.01099967956543,-86 -11.01099967956543,-86 C-11.01099967956543,-86 -11.133000373840332,-51 -11.133000373840332,-51 C-11.133000373840332,-51 -11.043000221252441,9.164999961853027 -11.043000221252441,9.164999961853027 M-11.043000221252441,9.164999961853027 C-11.043000221252441,9.164999961853027 -11.08899974822998,-72.18800354003906 -11.08899974822998,-72.18800354003906 C-11.08899974822998,-72.18800354003906 -11.12399959564209,-132.9340057373047 -11.12399959564209,-132.9340057373047 C-11.121000289916992,-142.55299377441406 -3.321000099182129,-150.3470001220703 6.297999858856201,-150.343994140625 C6.297999858856201,-150.343994140625 6.297999858856201,-150.343994140625 6.297999858856201,-150.343994140625 C15.916999816894531,-150.34100341796875 23.711000442504883,-142.54100036621094 23.70800018310547,-132.9219970703125 C23.70800018310547,-132.9219970703125 23.746999740600586,-64.83200073242188 23.746999740600586,-64.83200073242188 C23.746999740600586,-64.83200073242188 23.788999557495117,9.177000045776367 23.788999557495117,9.177000045776367"/></g></g></g><g id="__lottie_element_50"><g transform="matrix(0.9702957272529602,0.24192190170288086,-0.24192190170288086,0.9702957272529602,294.2233581542969,208.67556762695312)" opacity="1" style="display: block;"><g opacity="1" transform="matrix(1,0,0,1,0,0)"><path fill="rgb(255,0,0)" fill-opacity="1" d=" M23.80299949645996,-7.420000076293945 C23.80299949645996,-7.420000076293945 23.792999267578125,-7.420000076293945 23.792999267578125,-7.420000076293945 M23.788999557495117,9.177000045776367 C23.788999557495117,9.177000045776367 23.80699920654297,-45.47700119018555 23.80699920654297,-45.47700119018555 C23.809999465942383,-54.54499816894531 31.163000106811523,-61.893001556396484 40.23099899291992,-61.88999938964844 C40.23099899291992,-61.88999938964844 40.23099899291992,-61.88999938964844 40.23099899291992,-61.88999938964844 C50.400001525878906,-61.887001037597656 58.64099884033203,-53.638999938964844 58.63800048828125,-43.470001220703125 C58.63800048828125,-43.470001220703125 58.62099838256836,9.187999725341797 58.62099838256836,9.187999725341797 M58.62099838256836,9.187999725341797 C58.62099838256836,9.187999725341797 58.630001068115234,-17.933000564575195 58.630001068115234,-17.933000564575195 C58.632999420166016,-27.552000045776367 66.43199920654297,-32.39400100708008 76.0510025024414,-32.39099884033203 C76.0510025024414,-32.39099884033203 76.0510025024414,-32.39099884033203 76.0510025024414,-32.39099884033203 C85.66999816894531,-32.38800048828125 93.46399688720703,-24.58799934387207 93.46099853515625,-14.968999862670898 C93.46099853515625,-14.968999862670898 93.4530029296875,9.199999809265137 93.4530029296875,9.199999809265137 C93.4530029296875,9.199999809265137 93.43299865722656,58.77000045776367 93.43299865722656,58.77000045776367 C93.4229965209961,94.04000091552734 82.75299835205078,117.52999877929688 82.75299835205078,117.52999877929688 C82.75299835205078,117.52999877929688 82.74299621582031,160.1199951171875 82.74299621582031,160.1199951171875 C82.74299621582031,160.1199951171875 3.7929999828338623,160.08999633789062 3.7929999828338623,160.08999633789062 C3.7929999828338623,160.08999633789062 -40.87699890136719,160.0800018310547 -40.87699890136719,160.0800018310547 C-40.87699890136719,160.0800018310547 -40.856998443603516,117.48999786376953 -40.856998443603516,117.48999786376953 C-62.547000885009766,103.30000305175781 -78.28700256347656,81.63999938964844 -85.08699798583984,56.630001068115234 C-85.08699798583984,56.630001068115234 -99.26699829101562,4.449999809265137 -99.26699829101562,4.449999809265137 C-99.56700134277344,3.369999885559082 -99.70700073242188,2.2799999713897705 -99.70700073242188,1.2000000476837158 C-99.70700073242188,-4.019999980926514 -96.36699676513672,-8.850000381469727 -91.177001953125,-10.550000190734863 C-74.51699829101562,-16.010000228881836 -56.62699890136719,-6.650000095367432 -51.606998443603516,10.149999618530273 C-51.606998443603516,10.149999618530273 -45.87699890136719,29.34000015258789 -45.87699890136719,29.34000015258789 C-45.87699890136719,29.34000015258789 -45.875,9.152999877929688 -45.875,9.152999877929688 C-45.875,9.152999877929688 -45.96500015258789,-51.5 -45.96500015258789,-51.5 C-45.96500015258789,-51.5 -45.84299850463867,-87 -45.84299850463867,-87 C-45.84299850463867,-87 -45.834999084472656,-111.39600372314453 -45.834999084472656,-111.39600372314453 C-45.832000732421875,-120.46399688720703 -37.479000091552734,-127.81199645996094 -28.410999298095703,-127.80899810791016 C-28.410999298095703,-127.80899810791016 -28.410999298095703,-127.80899810791016 -28.410999298095703,-127.80899810791016 C-18.242000579833984,-127.80599975585938 -11.00100040435791,-119.55899810791016 -11.003999710083008,-109.38999938964844 C-11.003999710083008,-109.38999938964844 -11.01099967956543,-86 -11.01099967956543,-86 C-11.01099967956543,-86 -11.133000373840332,-51 -11.133000373840332,-51 C-11.133000373840332,-51 -11.043000221252441,9.164999961853027 -11.043000221252441,9.164999961853027 M-11.043000221252441,9.164999961853027 C-11.043000221252441,9.164999961853027 -11.08899974822998,-72.18800354003906 -11.08899974822998,-72.18800354003906 C-11.08899974822998,-72.18800354003906 -11.12399959564209,-132.9340057373047 -11.12399959564209,-132.9340057373047 C-11.121000289916992,-142.55299377441406 -3.321000099182129,-150.3470001220703 6.297999858856201,-150.343994140625 C6.297999858856201,-150.343994140625 6.297999858856201,-150.343994140625 6.297999858856201,-150.343994140625 C15.916999816894531,-150.34100341796875 23.711000442504883,-142.54100036621094 23.70800018310547,-132.9219970703125 C23.70800018310547,-132.9219970703125 23.746999740600586,-64.83200073242188 23.746999740600586,-64.83200073242188 C23.746999740600586,-64.83200073242188 23.788999557495117,9.177000045776367 23.788999557495117,9.177000045776367"/></g></g></g><filter id="__lottie_element_53" filterUnits="objectBoundingBox" x="0%" y="0%" width="100%" height="100%"><feComponentTransfer in="SourceGraphic"><feFuncA type="table" tableValues="1.0 0.0"/></feComponentTransfer></filter><mask id="__lottie_element_47_2" mask-type="alpha"><g filter="url(#__lottie_element_53)"><rect width="430" height="430" x="0" y="0" fill="#ffffff" opacity="0"/><use xmlns:ns1="http://www.w3.org/1999/xlink" ns1:href="#__lottie_element_47"/></g></mask><filter id="__lottie_element_54" filterUnits="objectBoundingBox" x="0%" y="0%" width="100%" height="100%"><feComponentTransfer in="SourceGraphic"><feFuncA type="table" tableValues="1.0 0.0"/></feComponentTransfer></filter><mask id="__lottie_element_35_2" mask-type="alpha"><g filter="url(#__lottie_element_54)"><rect width="430" height="430" x="0" y="0" fill="#ffffff" opacity="0"/><use xmlns:ns2="http://www.w3.org/1999/xlink" ns2:href="#__lottie_element_35"/></g></mask><filter id="__lottie_element_88" filterUnits="objectBoundingBox" x="0%" y="0%" width="100%" height="100%"><feComponentTransfer in="SourceGraphic"><feFuncA type="table" tableValues="1.0 0.0"/></feComponentTransfer></filter><mask id="__lottie_element_41_2" mask-type="alpha"><g filter="url(#__lottie_element_88)"><rect width="430" height="430" x="0" y="0" fill="#ffffff" opacity="0"/><use xmlns:ns3="http://www.w3.org/1999/xlink" ns3:href="#__lottie_element_41"/></g></mask><filter id="__lottie_element_92" filterUnits="objectBoundingBox" x="0%" y="0%" width="100%" height="100%"><feComponentTransfer in="SourceGraphic"><feFuncA type="table" tableValues="1.0 0.0"/></feComponentTransfer></filter><mask id="__lottie_element_50_2" mask-type="alpha"><g filter="url(#__lottie_element_92)"><rect width="430" height="430" x="0" y="0" fill="#ffffff" opacity="0"/><use xmlns:ns4="http://www.w3.org/1999/xlink" ns4:href="#__lottie_element_50"/></g></mask></defs><g clip-path="url(#__lottie_element_26)"><g clip-path="url(#__lottie_element_28)" transform="matrix(1,0,0,1,0,0)" opacity="1" style="display: block;"><g mask="url(#__lottie_element_35_2)" style="display: block;"><g transform="matrix(0.6156615018844604,0.7880107760429382,-0.7880107760429382,0.6156615018844604,627.5394287109375,17.570465087890625)" opacity="1"><g opacity="1" transform="matrix(1,0,0,1,179.3769989013672,106.23899841308594)"><path stroke-linecap="round" stroke-linejoin="round" fill-opacity="0" class="secondary" stroke="rgb(136,47,232)" stroke-opacity="1" stroke-width="12.04" d=" M-74.96600341796875,3.7019999027252197 C8.329999923706055,-12.956999778747559 74.96600341796875,3.7019999027252197 74.96600341796875,3.7019999027252197"/></g><g opacity="1" transform="matrix(1,0,0,1,244.4969940185547,106.55899810791016)"><path stroke-linecap="round" stroke-linejoin="round" fill-opacity="0" class="secondary" stroke="rgb(136,47,232)" stroke-opacity="1" stroke-width="12.04" d=" M-3.0889999866485596,-16.312999725341797 C-3.0889999866485596,-16.312999725341797 9.845999717712402,3.378999948501587 9.845999717712402,3.378999948501587 C9.845999717712402,3.378999948501587 -9.845999717712402,16.312999725341797 -9.845999717712402,16.312999725341797"/></g></g></g><g mask="url(#__lottie_element_41_2)" style="display: block;"><g transform="matrix(1,-0.0000011021860473192646,0.0000011021860473192646,1,-35.00054931640625,-34.99981689453125)" opacity="1"><g opacity="1" transform="matrix(1,0,0,1,179.3769989013672,106.23899841308594)"><path stroke-linecap="round" stroke-linejoin="round" fill-opacity="0" class="secondary" stroke="rgb(136,47,232)" stroke-opacity="1" stroke-width="12.04" d=" M-74.96600341796875,3.7019999027252197 C8.329999923706055,-12.956999778747559 74.96600341796875,3.7019999027252197 74.96600341796875,3.7019999027252197"/></g><g opacity="1" transform="matrix(1,0,0,1,244.4969940185547,106.55899810791016)"><path stroke-linecap="round" stroke-linejoin="round" fill-opacity="0" class="secondary" stroke="rgb(136,47,232)" stroke-opacity="1" stroke-width="12.04" d=" M-3.0889999866485596,-16.312999725341797 C-3.0889999866485596,-16.312999725341797 9.845999717712402,3.378999948501587 9.845999717712402,3.378999948501587 C9.845999717712402,3.378999948501587 -9.845999717712402,16.312999725341797 -9.845999717712402,16.312999725341797"/></g></g></g><g mask="url(#__lottie_element_47_2)" style="display: block;"><g transform="matrix(0.6018150448799133,-0.7986354827880859,0.7986354827880859,0.6018150448799133,-567.6278076171875,343.34954833984375)" opacity="1"><g opacity="1" transform="matrix(1,0,0,1,178.11199951171875,162.6280059814453)"><path stroke-linecap="round" stroke-linejoin="round" fill-opacity="0" class="secondary" stroke="rgb(136,47,232)" stroke-opacity="1" stroke-width="12.04" d=" M74.96600341796875,3.7019999027252197 C-8.329999923706055,-12.956999778747559 -74.96600341796875,3.7019999027252197 -74.96600341796875,3.7019999027252197"/></g><g opacity="1" transform="matrix(1,0,0,1,112.99099731445312,162.947998046875)"><path stroke-linecap="round" stroke-linejoin="round" fill-opacity="0" class="secondary" stroke="rgb(136,47,232)" stroke-opacity="1" stroke-width="12.04" d=" M3.0889999866485596,-16.312999725341797 C3.0889999866485596,-16.312999725341797 -9.845999717712402,3.378999948501587 -9.845999717712402,3.378999948501587 C-9.845999717712402,3.378999948501587 9.845999717712402,16.312999725341797 9.845999717712402,16.312999725341797"/></g></g></g><g mask="url(#__lottie_element_50_2)" style="display: block;"><g transform="matrix(1,0.000001176304635919223,-0.000001176304635919223,1,-34.999298095703125,-35.00018310546875)" opacity="1"><g opacity="1" transform="matrix(1,0,0,1,178.11199951171875,162.6280059814453)"><path stroke-linecap="round" stroke-linejoin="round" fill-opacity="0" class="secondary" stroke="rgb(136,47,232)" stroke-opacity="1" stroke-width="12.04" d=" M74.96600341796875,3.7019999027252197 C-8.329999923706055,-12.956999778747559 -74.96600341796875,3.7019999027252197 -74.96600341796875,3.7019999027252197"/></g><g opacity="1" transform="matrix(1,0,0,1,112.99099731445312,162.947998046875)"><path stroke-linecap="round" stroke-linejoin="round" fill-opacity="0" class="secondary" stroke="rgb(136,47,232)" stroke-opacity="1" stroke-width="12.04" d=" M3.0889999866485596,-16.312999725341797 C3.0889999866485596,-16.312999725341797 -9.845999717712402,3.378999948501587 -9.845999717712402,3.378999948501587 C-9.845999717712402,3.378999948501587 9.845999717712402,16.312999725341797 9.845999717712402,16.312999725341797"/></g></g></g><g transform="matrix(0.9702957272529602,0.24192190170288086,-0.24192190170288086,0.9702957272529602,294.2233581542969,208.67556762695312)" opacity="1" style="display: block;"><g opacity="1" transform="matrix(1,0,0,1,0,0)"><path stroke-linecap="round" stroke-linejoin="round" fill-opacity="0" class="primary" stroke="rgb(255,255,255)" stroke-opacity="1" stroke-width="12.04" d=" M23.80299949645996,-7.420000076293945 C23.80299949645996,-7.420000076293945 23.792999267578125,-7.420000076293945 23.792999267578125,-7.420000076293945 M23.788999557495117,9.177000045776367 C23.788999557495117,9.177000045776367 23.80699920654297,-45.47700119018555 23.80699920654297,-45.47700119018555 C23.809999465942383,-54.54499816894531 31.163000106811523,-61.893001556396484 40.23099899291992,-61.88999938964844 C40.23099899291992,-61.88999938964844 40.23099899291992,-61.88999938964844 40.23099899291992,-61.88999938964844 C50.400001525878906,-61.887001037597656 58.64099884033203,-53.638999938964844 58.63800048828125,-43.470001220703125 C58.63800048828125,-43.470001220703125 58.62099838256836,9.187999725341797 58.62099838256836,9.187999725341797 M58.62099838256836,9.187999725341797 C58.62099838256836,9.187999725341797 58.630001068115234,-17.933000564575195 58.630001068115234,-17.933000564575195 C58.632999420166016,-27.552000045776367 66.43199920654297,-32.39400100708008 76.0510025024414,-32.39099884033203 C76.0510025024414,-32.39099884033203 76.0510025024414,-32.39099884033203 76.0510025024414,-32.39099884033203 C85.66999816894531,-32.38800048828125 93.46399688720703,-24.58799934387207 93.46099853515625,-14.968999862670898 C93.46099853515625,-14.968999862670898 93.4530029296875,9.199999809265137 93.4530029296875,9.199999809265137 C93.4530029296875,9.199999809265137 93.43299865722656,58.77000045776367 93.43299865722656,58.77000045776367 C93.4229965209961,94.04000091552734 82.75299835205078,117.52999877929688 82.75299835205078,117.52999877929688 C82.75299835205078,117.52999877929688 82.74299621582031,160.1199951171875 82.74299621582031,160.1199951171875 C82.74299621582031,160.1199951171875 3.7929999828338623,160.08999633789062 3.7929999828338623,160.08999633789062 C3.7929999828338623,160.08999633789062 -40.87699890136719,160.0800018310547 -40.87699890136719,160.0800018310547 C-40.87699890136719,160.0800018310547 -40.856998443603516,117.48999786376953 -40.856998443603516,117.48999786376953 C-62.547000885009766,103.30000305175781 -78.28700256347656,81.63999938964844 -85.08699798583984,56.630001068115234 C-85.08699798583984,56.630001068115234 -99.26699829101562,4.449999809265137 -99.26699829101562,4.449999809265137 C-99.56700134277344,3.369999885559082 -99.70700073242188,2.2799999713897705 -99.70700073242188,1.2000000476837158 C-99.70700073242188,-4.019999980926514 -96.36699676513672,-8.850000381469727 -91.177001953125,-10.550000190734863 C-74.51699829101562,-16.010000228881836 -56.62699890136719,-6.650000095367432 -51.606998443603516,10.149999618530273 C-51.606998443603516,10.149999618530273 -45.87699890136719,29.34000015258789 -45.87699890136719,29.34000015258789 C-45.87699890136719,29.34000015258789 -45.875,9.152999877929688 -45.875,9.152999877929688 C-45.875,9.152999877929688 -45.96500015258789,-51.5 -45.96500015258789,-51.5 C-45.96500015258789,-51.5 -45.84299850463867,-87 -45.84299850463867,-87 C-45.84299850463867,-87 -45.834999084472656,-111.39600372314453 -45.834999084472656,-111.39600372314453 C-45.832000732421875,-120.46399688720703 -37.479000091552734,-127.81199645996094 -28.410999298095703,-127.80899810791016 C-28.410999298095703,-127.80899810791016 -28.410999298095703,-127.80899810791016 -28.410999298095703,-127.80899810791016 C-18.242000579833984,-127.80599975585938 -11.00100040435791,-119.55899810791016 -11.003999710083008,-109.38999938964844 C-11.003999710083008,-109.38999938964844 -11.01099967956543,-86 -11.01099967956543,-86 C-11.01099967956543,-86 -11.133000373840332,-51 -11.133000373840332,-51 C-11.133000373840332,-51 -11.043000221252441,9.164999961853027 -11.043000221252441,9.164999961853027 M-11.043000221252441,9.164999961853027 C-11.043000221252441,9.164999961853027 -11.08899974822998,-72.18800354003906 -11.08899974822998,-72.18800354003906 C-11.08899974822998,-72.18800354003906 -11.12399959564209,-132.9340057373047 -11.12399959564209,-132.9340057373047 C-11.121000289916992,-142.55299377441406 -3.321000099182129,-150.3470001220703 6.297999858856201,-150.343994140625 C6.297999858856201,-150.343994140625 6.297999858856201,-150.343994140625 6.297999858856201,-150.343994140625 C15.916999816894531,-150.34100341796875 23.711000442504883,-142.54100036621094 23.70800018310547,-132.9219970703125 C23.70800018310547,-132.9219970703125 23.746999740600586,-64.83200073242188 23.746999740600586,-64.83200073242188 C23.746999740600586,-64.83200073242188 23.788999557495117,9.177000045776367 23.788999557495117,9.177000045776367"/></g></g></g></g></svg>